<svg xmlns="http://www.w3.org/2000/svg" xmlns:xlink="http://www.w3.org/1999/xlink" viewBox="0 0 63.75 85" fill="#fff" fill-rule="evenodd" stroke="#000" stroke-linecap="round" stroke-linejoin="round"><use xlink:href="#A" x="1.875" y="2.5"/><symbol id="A" overflow="visible"><g stroke="none"><path d="M60 15H0l5 57.5L30 80l25-7.5L60 15" fill="#1572b6"/><path d="M51.74 52.5L54.565 20H30v55l20.313-6.094 1.34-15.402z" fill="#33a9dc"/><path d="M22 0h-9v11h9V8h-6V3h6zm13 0v3h-5l5 5v3H25V8h5l-5-5V0zm13 0v3h-5l5 5v3H38V8h5l-5-5V0z" fill="#000"/><path d="M24.933 65.98l-10.78-3.234-.9-10.245h8l.436 5L30 60v7.5zM11.522 32.5H30V25H10.87z" fill="#ebebeb"/><path d="M30 60l8.304-2.49.87-10.01H30V40h9.826l.652-7.5H30V25h19.13l-3.282 37.746L30 67.5V60z"/><path d="M30 47.5h-6.674l-.652-7.5H30z" fill="#ebebeb"/></g></symbol></svg>